# xmcd
#
# Track frame offsets:
#	150
#	11735
#	56873
#	105698
#	153512
#
# Disc length: 2307 seconds
#
# Revision: 1
# Processed by: cddbd v1.5.2PL0 Copyright (c) Steve Scherf et al.
# Submitted via: audiograbber 1.83.01
#
DISCID=3c090105
DTITLE=Grateful Dead - 78-11-21A Community War Memorial, Rochester NY
DYEAR=1900
DGENRE=
TTITLE0=Space
TTITLE1=Not Fade Away
TTITLE2=Black Peter
TTITLE3=Truckin'
TTITLE4=Johnny B Goode
EXTD=
EXTT0=
EXTT1=
EXTT2=
EXTT3=
EXTT4=
PLAYORDER=
